<svg width="40" height="40" viewBox="0 0 40 40" fill="none" xmlns="http://www.w3.org/2000/svg">
<path d="M3.375 8.125V29.5H36.625V8.125H3.375ZM3.375 5.75H36.625C37.2549 5.75 37.859 6.00022 38.3044 6.44562C38.7498 6.89102 39 7.49511 39 8.125V31.875C39 32.5049 38.7498 33.109 38.3044 33.5544C37.859 33.9998 37.2549 34.25 36.625 34.25H3.375C2.74511 34.25 2.14102 33.9998 1.69562 33.5544C1.25022 33.109 1 32.5049 1 31.875V8.125C1 7.49511 1.25022 6.89102 1.69562 6.44562C2.14102 6.00022 2.74511 5.75 3.375 5.75Z" fill="white"/>
<path fill-rule="evenodd" clip-rule="evenodd" d="M24.75 20H34.25V27.125H24.75V20Z" fill="white"/>
</svg>
