<svg width="148" height="44" viewBox="0 0 148 44" fill="none" xmlns="http://www.w3.org/2000/svg">
<path d="M9.796 33.217C8.20467 33.217 6.77867 32.9587 5.518 32.442C4.25733 31.9253 3.24467 31.1607 2.48 30.148C1.736 29.1353 1.34333 27.916 1.302 26.49H6.944C7.02667 27.296 7.30567 27.916 7.781 28.35C8.25633 28.7633 8.87633 28.97 9.641 28.97C10.4263 28.97 11.0463 28.7943 11.501 28.443C11.9557 28.071 12.183 27.5647 12.183 26.924C12.183 26.3867 11.997 25.9423 11.625 25.591C11.2737 25.2397 10.8293 24.9503 10.292 24.723C9.77533 24.4957 9.03133 24.2373 8.06 23.948C6.65467 23.514 5.50767 23.08 4.619 22.646C3.73033 22.212 2.96567 21.5713 2.325 20.724C1.68433 19.8767 1.364 18.771 1.364 17.407C1.364 15.3817 2.09767 13.8007 3.565 12.664C5.03233 11.5067 6.944 10.928 9.3 10.928C11.6973 10.928 13.6297 11.5067 15.097 12.664C16.5643 13.8007 17.3497 15.392 17.453 17.438H11.718C11.6767 16.7353 11.4183 16.1877 10.943 15.795C10.4677 15.3817 9.858 15.175 9.114 15.175C8.47333 15.175 7.95667 15.3507 7.564 15.702C7.17133 16.0327 6.975 16.5183 6.975 17.159C6.975 17.8617 7.30567 18.4093 7.967 18.802C8.62833 19.1947 9.66167 19.6183 11.067 20.073C12.4723 20.5483 13.609 21.003 14.477 21.437C15.3657 21.871 16.1303 22.5013 16.771 23.328C17.4117 24.1547 17.732 25.219 17.732 26.521C17.732 27.761 17.4117 28.8873 16.771 29.9C16.151 30.9127 15.2417 31.7187 14.043 32.318C12.8443 32.9173 11.4287 33.217 9.796 33.217ZM26.2953 18.151C26.8119 17.345 27.5249 16.694 28.4343 16.198C29.3436 15.702 30.4079 15.454 31.6273 15.454C33.0533 15.454 34.3449 15.8157 35.5023 16.539C36.6596 17.2623 37.5689 18.2957 38.2303 19.639C38.9123 20.9823 39.2533 22.5427 39.2533 24.32C39.2533 26.0973 38.9123 27.668 38.2303 29.032C37.5689 30.3753 36.6596 31.419 35.5023 32.163C34.3449 32.8863 33.0533 33.248 31.6273 33.248C30.4286 33.248 29.3643 33 28.4343 32.504C27.5249 32.008 26.8119 31.3673 26.2953 30.582V41.246H20.9943V15.702H26.2953V18.151ZM33.8593 24.32C33.8593 22.9973 33.4873 21.964 32.7433 21.22C32.0199 20.4553 31.1209 20.073 30.0463 20.073C28.9923 20.073 28.0933 20.4553 27.3493 21.22C26.6259 21.9847 26.2643 23.0283 26.2643 24.351C26.2643 25.6737 26.6259 26.7173 27.3493 27.482C28.0933 28.2467 28.9923 28.629 30.0463 28.629C31.1003 28.629 31.9993 28.2467 32.7433 27.482C33.4873 26.6967 33.8593 25.6427 33.8593 24.32ZM49.9083 33.248C48.2136 33.248 46.6843 32.8863 45.3203 32.163C43.977 31.4397 42.9126 30.4063 42.1273 29.063C41.3626 27.7197 40.9803 26.149 40.9803 24.351C40.9803 22.5737 41.373 21.0133 42.1583 19.67C42.9436 18.306 44.0183 17.2623 45.3823 16.539C46.7463 15.8157 48.2756 15.454 49.9703 15.454C51.665 15.454 53.1943 15.8157 54.5583 16.539C55.9223 17.2623 56.997 18.306 57.7823 19.67C58.5676 21.0133 58.9603 22.5737 58.9603 24.351C58.9603 26.1283 58.5573 27.699 57.7513 29.063C56.966 30.4063 55.881 31.4397 54.4963 32.163C53.1323 32.8863 51.603 33.248 49.9083 33.248ZM49.9083 28.66C50.921 28.66 51.7786 28.288 52.4813 27.544C53.2046 26.8 53.5663 25.7357 53.5663 24.351C53.5663 22.9663 53.215 21.902 52.5123 21.158C51.8303 20.414 50.983 20.042 49.9703 20.042C48.937 20.042 48.0793 20.414 47.3973 21.158C46.7153 21.8813 46.3743 22.9457 46.3743 24.351C46.3743 25.7357 46.705 26.8 47.3663 27.544C48.0483 28.288 48.8956 28.66 49.9083 28.66ZM71.4136 28.505V33H68.7166C66.7946 33 65.2963 32.535 64.2216 31.605C63.1469 30.6543 62.6096 29.1147 62.6096 26.986V20.104H60.5016V15.702H62.6096V11.486H67.9106V15.702H71.3826V20.104H67.9106V27.048C67.9106 27.5647 68.0346 27.9367 68.2826 28.164C68.5306 28.3913 68.9439 28.505 69.5226 28.505H71.4136ZM77.0323 13.904C76.1023 13.904 75.3377 13.6353 74.7383 13.098C74.1597 12.54 73.8703 11.858 73.8703 11.052C73.8703 10.2253 74.1597 9.54333 74.7383 9.006C75.3377 8.448 76.1023 8.169 77.0323 8.169C77.9417 8.169 78.6857 8.448 79.2643 9.006C79.8637 9.54333 80.1633 10.2253 80.1633 11.052C80.1633 11.858 79.8637 12.54 79.2643 13.098C78.6857 13.6353 77.9417 13.904 77.0323 13.904ZM79.6673 15.702V33H74.3663V15.702H79.6673ZM92.1889 20.104H89.3369V33H84.0359V20.104H82.1139V15.702H84.0359V15.206C84.0359 13.0773 84.6456 11.4653 85.8649 10.37C87.0842 9.254 88.8719 8.696 91.2279 8.696C91.6206 8.696 91.9099 8.70633 92.0959 8.727V13.222C91.0832 13.16 90.3702 13.3047 89.9569 13.656C89.5436 14.0073 89.3369 14.6377 89.3369 15.547V15.702H92.1889V20.104ZM111.761 15.702V33H106.46V30.644C105.922 31.4087 105.189 32.0287 104.259 32.504C103.349 32.9587 102.337 33.186 101.221 33.186C99.8981 33.186 98.7305 32.8967 97.7178 32.318C96.7051 31.7187 95.9198 30.861 95.3618 29.745C94.8038 28.629 94.5248 27.3167 94.5248 25.808V15.702H99.7948V25.095C99.7948 26.2523 100.094 27.1513 100.694 27.792C101.293 28.4327 102.099 28.753 103.112 28.753C104.145 28.753 104.961 28.4327 105.561 27.792C106.16 27.1513 106.46 26.2523 106.46 25.095V15.702H111.761Z" fill="white"/>
</svg>
