<svg width="16" height="16" viewBox="0 0 16 16" fill="none" xmlns="http://www.w3.org/2000/svg">
<path fill-rule="evenodd" clip-rule="evenodd" d="M11.7203 11.2773L14.9888 15.1128L14.4219 15.6L11.1445 11.7645C10.0166 12.6208 8.74698 13.0489 7.33563 13.0489C6.47936 13.0489 5.66001 12.8821 4.87759 12.5484C4.09517 12.2148 3.42198 11.766 2.85801 11.2021C2.29404 10.6381 1.84524 9.96493 1.51163 9.18248C1.17801 8.40004 1.01119 7.5807 1.01117 6.72445C1.01115 5.86821 1.17797 5.04886 1.51163 4.26642C1.84529 3.48397 2.29408 2.81078 2.85801 2.24683C3.42193 1.68288 4.09513 1.23409 4.87759 0.900452C5.66006 0.566813 6.47941 0.399994 7.33563 0.399994C8.19185 0.399994 9.01119 0.566813 9.79366 0.900452C10.5761 1.23409 11.2493 1.68288 11.8132 2.24683C12.3772 2.81078 12.826 3.48397 13.1596 4.26642C13.4933 5.04886 13.6601 5.86821 13.6601 6.72445C13.6601 7.60432 13.4888 8.43695 13.1463 9.22235C12.8038 10.0077 12.3285 10.6928 11.7202 11.2774L11.7203 11.2773ZM7.3357 12.3048C8.34547 12.3048 9.27849 12.0553 10.1348 11.5563C10.991 11.0573 11.6687 10.3797 12.1676 9.52345C12.6666 8.6672 12.9161 7.73418 12.9161 6.72438C12.9162 5.71458 12.6667 4.78156 12.1676 3.92532C11.6686 3.06907 10.991 2.39146 10.1348 1.89248C9.27854 1.39349 8.34552 1.144 7.3357 1.144C6.32587 1.144 5.39285 1.39349 4.53663 1.89248C3.68041 2.39146 3.0028 3.06907 2.50379 3.92532C2.00479 4.78156 1.75529 5.71458 1.75532 6.72438C1.75534 7.73418 2.00483 8.6672 2.50379 9.52345C3.00275 10.3797 3.68036 11.0573 4.53663 11.5563C5.3929 12.0553 6.32592 12.3048 7.3357 12.3048Z" fill="#030303"/>
</svg>
